<svg id="Capa_1" data-name="Capa 1" xmlns="http://www.w3.org/2000/svg" viewBox="0 0 39.42 41.02"><defs><style>.cls-1{fill:#919191;}</style></defs><path class="cls-1" d="M306.53,436.46h-29.1a7.15,7.15,0,0,1-5.25-6V401.38a13.23,13.23,0,0,1,1-2.77c1.56-2.46,3.93-3.17,6.66-3.17h24.18a13.47,13.47,0,0,1,2.37.21,6.22,6.22,0,0,1,5.15,6q0,14.37,0,28.72a6,6,0,0,1-1.7,4.08A9.21,9.21,0,0,1,306.53,436.46Zm-18.32-13.35h0c0,1.59,0,3.18,0,4.77,0,1,.33,1.48,1.37,1.43a19.06,19.06,0,0,1,2.39,0c1.09.06,1.48-.42,1.46-1.49,0-2.62,0-5.24,0-7.87,0-3-.28-2.84,2.85-2.81,1.77,0,1.88-.05,2.09-1.8.3-2.54,1-2.76-2.37-2.78-2.6,0-2.78-.23-2.55-2.83a.49.49,0,0,0,0-.12c.22-2,.88-2.54,2.85-2.51.4,0,.8,0,1.19,0,.78,0,1.2-.32,1.2-1.13v-2.74a1,1,0,0,0-1.1-1.09c-1.47,0-2.95-.08-4.41.05a5.05,5.05,0,0,0-4.95,5.36c0,1.07-.07,2.15,0,3.22.09,1.24-.47,1.65-1.61,1.56a3.87,3.87,0,0,0-.59,0c-1.56,0-1.69.16-1.72,1.72,0,2.85,0,2.88,2.75,3,.9.05,1.17.45,1.15,1.27C288.19,419.93,288.21,421.52,288.21,423.11Z" transform="translate(-272.18 -395.44)"/></svg>