<svg id="Capa_1" data-name="Capa 1" xmlns="http://www.w3.org/2000/svg" viewBox="0 0 50.9 50.92"><defs><style>.cls-1{fill:#919191;}</style></defs><path class="cls-1" d="M262.3,307.67v39.9c-1.67,4.29-3.48,5.52-8.11,5.52q-17.83,0-35.68,0a6.83,6.83,0,0,1-7.07-6.87c-.06-12.33,0-24.66,0-37a6.82,6.82,0,0,1,3.12-5.86,14.82,14.82,0,0,1,2.6-1.18h39.42A7.78,7.78,0,0,1,262.3,307.67Zm-25.56,43.25c6.16,0,12.33,0,18.5,0,3,0,4.89-1.86,4.9-4.84q.06-18.45,0-36.89a4.59,4.59,0,0,0-4.94-4.81q-18.27,0-36.54,0a4.73,4.73,0,0,0-5,5.11c0,12.13,0,24.27,0,36.41a5,5,0,0,0,.68,2.74,4.75,4.75,0,0,0,4.31,2.3Z" transform="translate(-211.4 -302.18)"/><path class="cls-1" d="M220.45,327.62c0-2.35,0-4.7,0-7.05a9.43,9.43,0,0,1,9.37-9.36c4.58,0,9.15,0,13.73,0a9.45,9.45,0,0,1,9.84,9.4c.15,4.73.14,9.47,0,14.2a9.53,9.53,0,0,1-9.47,9.35c-4.65.11-9.31.12-14,0a9.48,9.48,0,0,1-9.51-9.86C220.44,332.07,220.45,329.84,220.45,327.62Zm16.48-14.24c-2.35,0-4.7,0-7,0a7.18,7.18,0,0,0-7.26,7.29c0,4.62,0,9.23,0,13.85a7.27,7.27,0,0,0,7.26,7.46q7.05.17,14.09,0a7.4,7.4,0,0,0,7.26-7.28c.09-4.7.1-9.4,0-14.09a7.29,7.29,0,0,0-7.49-7.23C241.47,313.36,239.2,313.38,236.93,313.38Z" transform="translate(-211.4 -302.18)"/><path class="cls-1" d="M226.42,327.63a10.36,10.36,0,0,1,10.45-10.45,10.47,10.47,0,0,1,10.58,10.51,10.66,10.66,0,0,1-10.64,10.52A10.47,10.47,0,0,1,226.42,327.63Zm2.18,0a8.3,8.3,0,0,0,8.23,8.45,8.43,8.43,0,0,0,8.45-8.3,8.3,8.3,0,0,0-8.3-8.38A8.12,8.12,0,0,0,228.6,327.59Z" transform="translate(-211.4 -302.18)"/><path class="cls-1" d="M248.9,319.1a1.6,1.6,0,0,1-1.61,1.66,1.54,1.54,0,1,1,1.61-1.66Z" transform="translate(-211.4 -302.18)"/></svg>