<svg id="Capa_1" data-name="Capa 1" xmlns="http://www.w3.org/2000/svg" viewBox="0 0 238 145"><defs><style>.cls-1{fill:#fefefe;}.cls-2{fill:#8f9191;}.cls-3{fill:#b7bfbf;}.cls-4{fill:#b7bab7;}.cls-5{fill:#c9b8ad;}.cls-6{fill:#fdfdfd;}.cls-7{fill:#b7bdbc;}.cls-8{fill:#909292;}.cls-9{fill:#fcfcfc;}.cls-10{fill:#b5bdbd;}.cls-11{fill:#919192;}.cls-12{fill:#bbbbbf;}.cls-13{fill:#e2e3e6;}.cls-14{fill:#b4b4b9;}.cls-15{fill:#ceced2;}.cls-16{fill:#adadb2;}.cls-17{fill:#b9b5bb;}.cls-18{fill:#a19ea0;}.cls-19{fill:#c6c3c8;}.cls-20{fill:#c7c6ca;}.cls-21{fill:#bfbdc2;}.cls-22{fill:#b2b2b7;}.cls-23{fill:#c3c2c6;}.cls-24{fill:#d1d0d3;}.cls-25{fill:#afaeb2;}.cls-26{fill:#afafb4;}.cls-27{fill:#c4c0c5;}.cls-28{fill:#c2bfc5;}.cls-29{fill:#948d8b;}.cls-30{fill:#b8b8bc;}.cls-31{fill:#d2d2d4;}.cls-32{fill:#c2c2c6;}.cls-33{fill:#cac9cd;}.cls-34{fill:#c5bec5;}.cls-35{fill:#cccbcf;}.cls-36{fill:#7d7080;}.cls-37{fill:#b1b1b6;}.cls-38{fill:#c4c3c8;}.cls-39{fill:#8f7f8f;}.cls-40{fill:#d1cdd1;}.cls-41{fill:#c9c8cc;}.cls-42{fill:#bababe;}.cls-43{fill:#b0afb5;}.cls-44{fill:#eaeaeb;}.cls-45{fill:#c1c1c5;}.cls-46{fill:#b8bab6;}.cls-47{fill:#a9a8ad;}.cls-48{fill:#cacacd;}.cls-49{fill:#bdbdc2;}.cls-50{fill:#b7bcba;}.cls-51{fill:#b7b7bc;}.cls-52{fill:#bab0ae;}.cls-53{fill:#b7bbb8;}.cls-54{fill:#c8c8cc;}.cls-55{fill:#cac9cb;}.cls-56{fill:#d6d0d1;}.cls-57{fill:#aaaaaf;}.cls-58{fill:#c6c6ca;}.cls-59{fill:#a5a1a1;}.cls-60{fill:#929292;}.cls-61{fill:#d8d8da;}.cls-62{fill:#afa9ab;}.cls-63{fill:#b1afb5;}.cls-64{fill:#e5e5e7;}.cls-65{fill:#d3d3d5;}.cls-66{fill:#dcdcdf;}.cls-67{fill:#929091;}.cls-68{fill:#9c8892;}.cls-69{fill:#a5a5aa;}.cls-70{fill:#b0b0b5;}.cls-71{fill:#989697;}.cls-72{fill:#aeaeb3;}.cls-73{fill:#8c727f;}.cls-74{fill:#b8bfbe;}.cls-75{fill:#d9d9db;}.cls-76{fill:#d7d7da;}.cls-77{fill:#c5b1a1;}.cls-78{fill:#b1b0b3;}.cls-79{fill:#bbc0be;}.cls-80{fill:#a6a6ac;}.cls-81{fill:#a8a8ad;}.cls-82{fill:#c0c0c4;}.cls-83{fill:#d6d6d9;}.cls-84{fill:#989898;}.cls-85{fill:#bfbfc3;}</style></defs><path class="cls-1" d="M0,144.9V.1Q117,.1,233.9,0c3.43,0,4.11.67,4.1,4.09q-.23,68.41,0,136.82c0,3.42-.67,4.1-4.1,4.09Q117,144.82,0,144.9Z" transform="translate(0 0)"/><path class="cls-2" d="M119.93,123.86c-8.22,5.85-16.49,11.48-26.39,14.4C53.77,150,13.92,125.87,6,86-1.24,49.56,20.6,14.56,56.85,5.77c22.95-5.56,44-.39,62,15.44,1.46,1.89-.29,2.89-1.14,4.15-.59.82-1.73,1.23-1.72,2.42,3.65.24,7.32-.58,10.88.63a6.49,6.49,0,0,1,2,1.4c1.51,1.59,3.18,3.33,2.23,5.65s-3.29,1.92-5.23,2c-3.82.16-7.64,0-11.45.07a18.85,18.85,0,0,0-4,.27c-1.35.3-2.89.83-2.82,2.33.09,1.9,2,1.37,3.15,1.39,6.64.11,13.28,0,19.92.08,2.53,0,5,.26,6.6,2.69,1.2,1.87,2.09,3.88,1.05,6.08-.93,2-2.93,2-4.74,2.06-8.63.17-17.27.2-25.89,0-4-.09-6.74,1.12-7.92,5.08a3.33,3.33,0,0,1-1.15,1.12c-2.24,1.09-5,.21-7.09,2-2.73,2.11-1.48,6-3.74,8.33-1.83.17-1.74-1.32-2.11-2.41-.1-3.59-2.49-4.24-5.41-4.14-4,.14-7.11,2.24-9.78,5.08a3.46,3.46,0,0,1-2.65.84c-4.21-4.94-9.2-7.44-15.74-4.9-3.08,1.2-4.1,3.06-3.23,5.77,3.39-.31,7.05-1.63,9.23,2.47C53.42,74.14,48,75.45,44,79.35a1.78,1.78,0,0,1-1.34-.48c-1.1-5.05,1.16-9.76,1.45-14.67.14-2.48,2.18-5.53-1-7.19-2.91-1.54-5.82-.49-8.11,1.92s-2.84,5.75-4.11,8.7c-.61,1.4-.51,3.79-3.2,3.27-1.82-3.08-.83-6.48-1-9.73-.16-2.57-.64-4.62-3.8-4.73-2.88-.11-4.84.94-5.37,4-1.08,6.2-2.41,12.39-3,18.65-.4,4.16-3,7.66-2.85,11.87a4.51,4.51,0,0,0,1.48,1.65c.16-.53-.56-.93-.2-1.49,3.17-1.79,5.1-4.29,5.34-8.08.1-1.54.42-3.28,2-4.23,2.64,1.13,1.86,3.55,2,5.56s-.11,4,.31,5.89C25,93,26,90.43,27.25,89c2.28-2.94,1.53-7.76,5.83-9.45,3,3.29.43,6.76.37,10.14a5,5,0,0,0,.17,1.22c1.14,1.25,2.5.8,3.83.48.3-.26.61-.5.9-.75.42-.43.82-.87,1.2-1.33.79-1,1.49-2.07,3-1.87a2.53,2.53,0,0,1,1.08.67,11.18,11.18,0,0,0,3.17,3.11A8.12,8.12,0,0,0,53,91.07c1.27-.47,2.52-1,3.93-.57,2.59,2,5.22.63,7.84.07,1.14.16,2.1.87,3.25,1,4.08-.06,8.36,1.17,11.93-2,1.46-1.06,2.58-2.7,4.6-2.85,1.33.63,2.42,1.76,4,1.86,3,.89,6.18,3,8.79-.81A3.62,3.62,0,0,1,99,86.68c2.81.51,4.25,3,6.51,4.37a4.64,4.64,0,0,0,2.49.62c2.07,0,4.13,0,6.19,0a4.83,4.83,0,0,0,4.93-2.43c.87-1.28.85-3.19,2.7-3.75a2.26,2.26,0,0,1,1.3.31c1.17,1.6-.16,3.41.45,5,1.45,1.35,2.92,1,4.39.06a9.19,9.19,0,0,0,1.56-2.17c1.44-3.25,1.54-6.77,2.19-10.18a10.59,10.59,0,0,1,1.89-5c1.33-1.25,2.78-1.74,4.45-.65,2.46,3.76.27,8.56,2.78,12.32a6.49,6.49,0,0,1,.84,4c-.72,3.6-2.61,6.11-6.39,6.89-9.22,1-18.53-.16-27.79,1.15,1.85,1.8,4.15,1.15,6.27,1.31,6.74.53,13.65-1.23,20.25,1.43,3.05,4.47.66,9.58-4.95,10.25-4,.46-8,.07-11.94.19-1.78.06-3.64-.45-5.61.7,1.18,3.37,4,3.29,6.78,3.53s6.1-1.13,8.17,2.08c.25,2.08-1.31,3.14-2.47,4.44A10.15,10.15,0,0,1,119.93,123.86Z" transform="translate(0 0)"/><path class="cls-3" d="M116.92,25c.54-1.33,2.22-2.08,2-3.81,6.57-4.42,12.75-9.35,20.27-12.34,18.94-7.53,37.5-7,55.83,1.75,16,7.62,27,20.28,34.44,36,3.32,7,4.4,14.8,5.23,22.53a18.9,18.9,0,0,0,0,6.75c-1.17,9.88-3,19.57-7.83,28.45-11,20.17-28.05,32.06-50.45,36.49a23,23,0,0,1-4.47,0c-5-1.53-9.94-1.16-14.9,0a67.87,67.87,0,0,1-37-17,7.26,7.26,0,0,1,3-3c2-.71,3.49.56,5,1.51,26.93,16.64,53.38,15.36,79.25-2.34,6.66-4.57,9.69-12,13.57-18.73a25.86,25.86,0,0,0,2-5,5,5,0,0,1-2.09,2.82c-7.33.19-15,3.38-21.61-2.54-1.77-1.6-3.37-.92-4.83.49-3,2.93-6.55,3.42-10.62,2.84-4.22-.61-8.54-.21-12.8-.07-3.18.11-6.27.61-9.26-.91a3.84,3.84,0,0,0-3.37,0c-4.68,2-9.38,1.53-14.09.19a24.53,24.53,0,0,0,11.95.89c6.25-.9,12.55.7,18.82-.09,6.57-.82,13.56,2.23,19.77-2.4,1.83-1.37,4.19-.6,6.11.71a10.58,10.58,0,0,0,9,1.63,8.86,8.86,0,0,1,3.48-.06c5.27.72,6.16,2.72,3.46,7.34-9.39,16-24.52,23.21-41.91,25.72a64.4,64.4,0,0,1-43.65-9.11c-2.25-1.38-5.42-2.26-5.21-5.93-2-4-5.64-1.87-8.33-1.77-5.15.21-7.4-2.41-9.27-7.16,7.11,0,13.71.07,20.31,0,4.32-.06,6.53-3.52,5.31-8-3-3-3-3,2-6,3.14-.77,3.57-3.77,5-6,1.7-.85,3.48-.14,5.22-.28a14.54,14.54,0,0,1,3.42.4c4.63,1.23,8.44.47,10.68-4.25,2.56,1.2,2.84,5.92,7.06,4.55a42.26,42.26,0,0,1,5.49.7c2.78,1.73,5.47,2.1,8-.51a3.27,3.27,0,0,1,2-.16c2.87,1,5.8,2.72,8.35-.62,1.27-3.73,1.33-7.71,2.36-11.48.55-2,.76-4.22,2.71-5.56,1.57-.25,3.2-.81,4.4.84a14,14,0,0,1,0,8.83,1.59,1.59,0,0,1-1.13.9c-1.94-.46-1.33-2.3-1.95-3.58.46,2,.31,4,1.08,5.82a9.11,9.11,0,0,0,1.28,3,8.64,8.64,0,0,0,8.55,2.91,6.56,6.56,0,0,1,1.33-.09,12.64,12.64,0,0,1,5,1.25c1.49.2,3,.41,4.29-.58a6.23,6.23,0,0,0,1.39-2.21c2.47-8.92,3-18.17,4.73-27.21.63-3.31-.88-4.72-4.26-3.51-2.53.95-1.18,4.65-3.88,5.47-5.57-1.13-10.35.62-14.68,4a2.93,2.93,0,0,1-1.37-.22c.7-5.08-4.28-2.35-5.89-4.24-1.53-1-3-1.39-4.23.47a11,11,0,0,0-.7,2.8c-.25,1.39-.1,3.27-1.77,3.61s-2.41-1.3-3.22-2.5c-4.11-5.68-8.85-6.46-17-2.75-1.31.88-3.36,1.43-2.63,3.56s2.53.6,3.83.61c1.95,0,3.94-.43,5.68.9a2.2,2.2,0,0,1,.2,2.05c-4.23,2.48-9.29,3.9-11.54,8.94A12.76,12.76,0,0,1,159.42,84c-6,1.76-9.24.85-11.66-3.27-2.58-4.4-1.27-12,2.73-15.91,2-1.57,4.34-1.19,6.66-.92,1.74.2,3.64,1,5-.94,1.7-5.53,1-6.36-4.49-6.74-5.28-.37-9.1,2.53-13.09,5.2a5.09,5.09,0,0,1-3.55.85,4.08,4.08,0,0,1-1.12-1c-1.43-2.2-3.73-1.81-5.84-1.9-10.11-.43-20.23.26-30.34-.33-1.62-.09-3.36.39-4.66-1.06C99.9,51,99.9,51,106.78,51c8.82,0,17.65.06,26.47-.05,1.71,0,4.77,1.11,4.49-2.12C137.51,46.29,137,43,133,43c-7.66,0-15.32.13-23-.08-1.81-.05-5.39,1.55-5.22-1.3.14-2.49,1.67-6,6.16-5.69,5.13.4,10.31.15,15.47,0,1.39,0,3.37.84,4-.88.54-1.41-.74-2.78-1.79-3.85-.81-.82-1.76-1.5-2.65-2.24-.63-.42-1.43-.72-1.36-1.71.65-2.44,2.53-3.85,4.48-5.14C150.8,7.86,180.58,8,202.35,22.4c7.77,5.13,13,12.23,17.26,20.29,1.47,2.78.85,5-1.37,7.14-4.39,4.21-9.73,5.38-15.58,5.46-5.06.07-10.16.08-15.19.26-6.21.21-13.23,0-19-4.15-7.76-5.61-15.41-5.41-23.3.29,3.91-2.56,8.05-4.2,12.89-4,3.68.14,7,1,9.47,3.7a10.56,10.56,0,0,0,9,3.37c2.65-.14,5.34-.09,7.73,1.43a3.31,3.31,0,0,0,3.35.3c5.1-2.69,10.34-1.2,15.5-.49s15.15-3.69,17.8-8.09c1.29-2.16-.07-3.84-.86-5.59-7.18-15.76-20.17-24.6-36.29-28.76-21.9-5.66-42.23-1.88-60.26,12.29C119.79,28.73,118.7,28.58,116.92,25Z" transform="translate(0 0)"/><path class="cls-4" d="M157,140.81c5-2.57,9.93-3.2,14.9,0Z" transform="translate(0 0)"/><path class="cls-5" d="M234.63,75.87a7.12,7.12,0,0,1,0-6.75A18.24,18.24,0,0,1,234.63,75.87Z" transform="translate(0 0)"/><path class="cls-6" d="M34,58c3-4.37,7.32-2.6,11.26-2.18,1.72.18,1.11,1.47.93,2.65-1,6.78-1.93,13.59-2.89,20.38,0,3.06.4,6.14-.32,9.17-1.54,0-1.93,1.48-3,2.15-6.15,1.71-7.07.89-6.31-5.35A94.14,94.14,0,0,1,35.48,74.7c0-1.76.73-3.43.81-5.13A21,21,0,0,0,35.88,72c-.81,2.73-.05,6-3,8-2.82,2.83-2.53,7.15-4.89,10.21-2.25.94-4.45,1.66-5.84-1.28-.42-5-.06-10.13-.22-15.2a12.74,12.74,0,0,1-.27,3.94,3.59,3.59,0,0,1-1.61,1.52c-.4,2.73-.91,5.44-1.16,8.18-.35,3.94-4.19,3-6.17,4.56-.56.77-1.16.67-1.78.09-2.56-1-.91-3.17-.55-4,3.61-8.73,3.68-18.13,5.45-27.2.94-4.83,6.5-7.58,10.74-5.1,1.46.85,1.28,2.17,1.3,3.46C28,63,28,67,28.05,71a3.43,3.43,0,0,1,.22,3.65A158.14,158.14,0,0,1,34,58Z" transform="translate(0 0)"/><path class="cls-7" d="M116.92,25c1.5,2.74,3.13,2.23,5.16.45,22.16-19.56,57.86-20.29,81.16-4.75,9,6,14.69,14.13,19.21,23.48,1.13,2.34.56,3.5-1.43,5.85-4.3,5.06-10.23,5.46-15.45,7.83a5.06,5.06,0,0,1-1.28.48c-2.46-4-6.82.26-9.66-2.2a2,2,0,0,0-1.92-.09c-6.53,4.79-13-1.77-19.49-.09-1.69.43-3.13-.43-4.49-1.61-7.82-6.79-14.41-7.23-22.78-1.79-.88.58-1.59,2.78-3,1.11s.42-2.85,1.52-3.56c5.72-3.72,15.36-6.51,23.35-.88a27.51,27.51,0,0,0,23.62,4.07c1.38-.35,2.59.15,3.89.29,7.61.78,15.16,1.23,21.67-4.19,2.49-2.07,2.82-3.78,1.32-6.73-8.36-16.36-22.22-25-39.7-28.57-17.21-3.47-33.28-.11-48.31,8.76A17.07,17.07,0,0,0,125,28,23.12,23.12,0,0,1,114,28,6.53,6.53,0,0,1,116.92,25Z" transform="translate(0 0)"/><path class="cls-7" d="M125.91,117.88c5.91,6.6,13.93,9.6,22.05,11.77,19.78,5.3,38.38,2.47,55.43-9.37,5.93-4.11,9.6-10,13.48-15.74,1.11-1.65.64-2.37-1.09-2.74-1.29-.28-2.67-1-3.85-.76a16.92,16.92,0,0,1-13.58-2.66,3.06,3.06,0,0,0-2.81,0c-6.82,5-14.59,1.76-21.83,2.79-6.74.95-13.41-1.29-20.15.56-3.82,1.06-7.85-.16-11.43-2.07-.7-.37-2.17-.73-1.14-2.11a1.69,1.69,0,0,1,2.52-.56c5.09,2.84,10.23,3.46,15.26-.24,1.25-.92,2.2-.27,3,.62,1.24,1.36,3,2.26,4.47,1.52,4.77-2.43,9.93,2.06,14.58-1.07.36-.25,1.22.11,1.79.34,4.52,1.84,8.44,1.22,11.44-2.84,2.15-2.9,4.05-2.17,5.91.24,2.85,3.66,6.4,4.44,10.58,2.58a3.06,3.06,0,0,1,3.24.07c2.33,1.44,4.77,1,7.11-.22,2.33.33,1.45,1.73,1,3-5,14.28-15.37,23.35-29,28.76-23.46,9.33-45.92,7.23-67-7.15a32.18,32.18,0,0,0-3.06-1.65A7.36,7.36,0,0,1,125.91,117.88Z" transform="translate(0 0)"/><path class="cls-6" d="M47.86,70.83c-2-2.26-.45-7,2.83-8.52,6.58-3,13.7-.74,17.41,5.62,2.24,2.85.07,5.82.25,8.73a17.46,17.46,0,0,1-.44,3.14c-.71,1.93-.57,4-1,6-.47,1.4-.61,2.92-1.51,4.16-3.07,2.51-6.39-.33-9.55.45-1.81.65-3.51,1.73-5.56,1.49a9.25,9.25,0,0,1-4.66-2.22,8.32,8.32,0,0,1-2.17-3c-1-2.64-.2-5.19.39-7.75,3.57-4.62,8.15-7.2,14.11-7,.86-1,1.42-2.12-.43-2.45C54.17,68.92,50.73,68,47.86,70.83Z" transform="translate(0 0)"/><path class="cls-6" d="M121.93,86c-.63,1.39-1.27,2.78-1.9,4.16-3.86,2.66-8,2.12-12.17,1.06C102,89,99.29,84.67,99.62,78.41a24.43,24.43,0,0,0-.25-5,10.46,10.46,0,0,1,1.75-5.33,17,17,0,0,1,2.15-2.72c3.8-4.2,8.18-6.93,14-4.69s8.06,7,7.88,13a8.92,8.92,0,0,1-.49,2.39,5,5,0,0,1-1.9,2.49c-2.82,1.22-5.83.46-8.73.8-1.4.17-3.43-1-4,1.46,2.53,3.33,6,1.34,9,1.56C121.55,82.57,123.62,82.68,121.93,86Z" transform="translate(0 0)"/><path class="cls-6" d="M84.91,86.88,81,90c-1.57,1-3.45,1.15-5.14,1.83a15.26,15.26,0,0,1-4,0c-2.22-.8-5.37-.23-5.72-3.83.46-1.78-.2-4.07,2.26-4.94a14.28,14.28,0,0,1,3.91-.34c.71,0,1.42,0,2.11-.06,1.37-.27,1.76-.88.48-1.78-1.48-1-3.07-2-4.09-3.54a9.26,9.26,0,0,1-1-10.33c3.25-5,8-6.23,13.64-5.56,2.84.33,4.07,1.65,3.51,4.5-.47,2.56-2.23,3.18-4.57,3.38-.87.08-3.56-1.1-2.42,1.9,1.65,1.2,3.63,1.93,4.93,3.6a9.75,9.75,0,0,1,2.08,8.35,8.91,8.91,0,0,1-1.44,3.31Z" transform="translate(0 0)"/><path class="cls-6" d="M90.82,59.91c1.57-3.59,4.71-1.26,7.07-1.86,2.43,2.71,5.52,5.16,3.74,9.52-2.06,3.25-5.16,5.93-5.2,10.25,0,2.14-.39,4.26,1.37,5.94A4,4,0,0,1,98,88.2c-2.59,4.37-4.87,4.56-10.12.83a3.28,3.28,0,0,1-1.69-1.59,7.3,7.3,0,0,1,.24-3.93c.48-4.8-.34-9.75,1.79-14.34C89.44,66.18,88.75,62.66,90.82,59.91Z" transform="translate(0 0)"/><path class="cls-8" d="M101,68c-.33-2.43,1.21-5.55-2.67-6.73-.42-.12-.27-2.09-.39-3.2L99.06,58c12.68,0,25.36.09,38,0,3.15,0,4.22,1.15,3.85,4.07-2.59,1.83-5.16,3.25-8.49,1.54-1.37-.7-2.86,0-4,1.07-1.78,1.74-1.45,4.2-2.13,6.31-.44,1.33-.18,3.19-2.4,3.17.77-10.62-8.24-15.54-15.4-11.66-2.75,1.49-4.63,4.12-6.55,6.59C101,69.25,100.65,69,101,68Z" transform="translate(0 0)"/><path class="cls-9" d="M127.72,63.93a2.43,2.43,0,0,1,3.74-1.81c3.33,1.87,6.35-.21,9.49-.13l-.09.09c.76,4.86-.61,7.58-5,10a4.18,4.18,0,0,0-1.85,2c-2,5.19-.76,11.18-3.9,16.1-2,.8-4,1.61-6,.27-1.26-4.9-.22-9.67.91-14.42.39-1.59,1.15-3.1,1-4.81C126.41,68.75,126.2,66.13,127.72,63.93Z" transform="translate(0 0)"/><path class="cls-10" d="M135.93,94.92c-.08,2.19-5.35,2.66-2,6-7-1.88-14.23-.59-21.34-1-1.49-.07-3,0-4.5,0-1.89,0-4-.08-3.91-2.65.09-2.22,2.06-2.27,3.77-2.28h16C127.94,95,131.93,94.94,135.93,94.92Z" transform="translate(0 0)"/><path class="cls-11" d="M122.8,77.89c.21-.73.12-1.65,1.15-1.88,1.87,3.56.21,6.75-1.08,10h-.94c-.14-1.52.47-3-2.55-2.4-3.82.71-8.53,2.59-11.33-2.48,1.81-1.9,4.19-1.39,6.41-1.43C117.37,79.61,120.27,79.65,122.8,77.89Z" transform="translate(0 0)"/><path class="cls-12" d="M100.15,72.86c1.27,1.63.81,3.55.68,5.31-.43,5.68,1.92,9.61,7.06,11.94,0,2.21-1.76,1.65-3,2l-5.84-5c-.86-.78-.56-2-1-2.89q-.18-.78-.33-1.56c-.13-1.62-.08-3.24-.11-4.86C97.82,75.78,97.79,73.7,100.15,72.86Z" transform="translate(0 0)"/><path class="cls-13" d="M122.87,86c0-3.36,1.74-6.54,1.08-10,0-.64,0-1.29,0-1.93,1.77-.88.89-2.55,1.15-3.88,1-.85,1.3.25,1.82.71q-1.47,9.5-2.93,19c.33,1,3.16.19,1.73,2.43-1.27,0-2.6.53-3.73-.48Z" transform="translate(0 0)"/><path class="cls-14" d="M36.09,73.13c-.41,3.45-.73,6.91-1.25,10.34-1,6.44-1,6.44,5.21,6.74l-.91.86a6.73,6.73,0,0,1-7.09-.1c.18-3.7,1.68-7.29.86-11.06,1-2.86,2.33-5.63,2.25-8.77C36.94,71.11,36.49,72.14,36.09,73.13Z" transform="translate(0 0)"/><path class="cls-15" d="M47.86,70.83c2.14-2.44,9-3.91,11.57-2.45a2.15,2.15,0,0,1,1.32,2.39C60.37,72.35,59,72,57.92,72,54.87,69,51.36,70,47.86,70.83Z" transform="translate(0 0)"/><path class="cls-16" d="M69.76,67c-.58,3.62-.35,7.09,1.93,10.16C70,82.24,68.6,78.44,67.11,77l1-9.09Z" transform="translate(0 0)"/><path class="cls-17" d="M34,58c-1,5.91-3.59,11.3-5.31,17.35-1.18-1.66-.59-3.09-.66-4.44C30.83,67,30.3,61.54,34,58Z" transform="translate(0 0)"/><path class="cls-18" d="M78.88,72.21c-3.29-2.85-1.17-3.72,1.6-4.1,2.31-.32,5.07.84,6.43-2.2C87.08,67,86.73,68.27,88,69c.08.2.15.4.23.61-.4,1-1.27,1-2.15,1.08C83.85,72,81.13,71,78.88,72.21Z" transform="translate(0 0)"/><path class="cls-19" d="M56.09,90c.83-1.08,1.57-2.17,3.12-.82,1.71,1.48,3.79.61,5.71.64A.92.92,0,0,1,65,91c-2.66,1.49-5.3,4.1-8,.12A6.26,6.26,0,0,1,56.09,90Z" transform="translate(0 0)"/><path class="cls-20" d="M139.94,86c-3.2-3.93-1.6-8.6-2-13l.77-.2a2.83,2.83,0,0,1,1.85,1.36,18.06,18.06,0,0,1,1.21,7.63C141.34,83.27,141.25,84.89,139.94,86Z" transform="translate(0 0)"/><path class="cls-21" d="M104.9,92.06l3-2a22.55,22.55,0,0,0,12.14,0c-1.19,1.9-2.73,3.14-5.14,2.76a15.85,15.85,0,0,0-7.83,0C106.23,92.88,105.42,92.89,104.9,92.06Z" transform="translate(0 0)"/><path class="cls-22" d="M139.94,86c.12-1.36-.5-2.89.92-4a11.27,11.27,0,0,1,5.1,8,8.12,8.12,0,0,1-5.06-1Z" transform="translate(0 0)"/><path class="cls-23" d="M65,91c0-.38,0-.76,0-1.14.15-1.38-.22-2.88.93-4,.89.41.38,1.53,1,2.07.36,3.46,3.89,1.25,5.25,2.92a1.9,1.9,0,0,1-1.2,1.48c-1.26.41-2.66-.24-3.86.53A2.9,2.9,0,0,1,65,91Z" transform="translate(0 0)"/><path class="cls-24" d="M67.07,92.84c1.06-1.33,2.56-.71,3.89-.86,1.5-1.2,3.54.26,5-1,1.44-1.53,3.31-.81,5-1C77.17,95,71.81,92.38,67.07,92.84Z" transform="translate(0 0)"/><path class="cls-25" d="M43.81,79c1.6,2.59-.37,5.29.24,7.92.33,1-.2,1.28-1.09,1.17h0a8.93,8.93,0,0,1,.32-9.17Z" transform="translate(0 0)"/><path class="cls-26" d="M23,88c.59,3.24,3.2,1.74,5,2.14-1.55,2.1-3.12,4.14-6,1.86-.83-1.21-.44-2.54-.33-3.83A.88.88,0,0,1,23,88Z" transform="translate(0 0)"/><path class="cls-27" d="M22,88l0,4c-1.9-2.25-.62-4.94-1-7.4-.29-1.83.82-3.89-.9-5.48.23-.4.45-.8.68-1.19,2.29-.19,1.71,1.59,1.67,2.7C22.35,83.06,23,85.57,22,88Z" transform="translate(0 0)"/><path class="cls-28" d="M90.82,59.91c-.85,3-.4,6.28-1.93,9.13-.33.44-.61.42-.85-.08L88,69C88,65.69,87.6,62.23,90.82,59.91Z" transform="translate(0 0)"/><path class="cls-29" d="M114,28,125,28,126,29q-6-.11-12-.23c-.06,0-.17-.24-.17-.36A1.51,1.51,0,0,1,114,28Z" transform="translate(0 0)"/><path class="cls-30" d="M43,88.06l1.09-1.17a3.31,3.31,0,0,1,2,2,2.64,2.64,0,0,1,.44,2.59L46,92C44.42,91.1,43,90.11,43,88.06Z" transform="translate(0 0)"/><path class="cls-31" d="M125.92,91.81l-2-1.89,6.16.24c-.39.58-.78,1.17-1.16,1.76A2.14,2.14,0,0,1,125.92,91.81Z" transform="translate(0 0)"/><path class="cls-32" d="M56.09,90l.84,1.08L53.07,92a3.56,3.56,0,0,1-3,.28A.91.91,0,0,1,50,90.94Z" transform="translate(0 0)"/><path class="cls-33" d="M107.06,92.84a7.75,7.75,0,0,1,7.83,0Z" transform="translate(0 0)"/><path class="cls-34" d="M38.87,92a5.75,5.75,0,0,1-6.78,0A9.49,9.49,0,0,1,38.87,92Z" transform="translate(0 0)"/><path class="cls-35" d="M50,92l3.07,0A5.94,5.94,0,0,1,46,92l0,0C47.33,90.87,48.66,91.08,50,92Z" transform="translate(0 0)"/><path class="cls-36" d="M125.92,91.81l3,.11a5.43,5.43,0,0,1-7,0Z" transform="translate(0 0)"/><path class="cls-37" d="M38.87,92H32.09c0-.35,0-.7,0-1l7.09.1A7.9,7.9,0,0,0,38.87,92Z" transform="translate(0 0)"/><path class="cls-38" d="M87.26,88,87.92,89c-2.34,1.16-2.82-.3-3-2.15l0,0C86.09,86.32,86.48,87.58,87.26,88Z" transform="translate(0 0)"/><path class="cls-39" d="M11,91.93l1.78-.09,3.36.48C13.55,93.12,12.16,93.38,11,91.93Z" transform="translate(0 0)"/><path class="cls-6" d="M99,84c0,1,.07,2.06.1,3.09L98,88.2a6.76,6.76,0,0,0-1.08-4A1.31,1.31,0,0,1,99,84Z" transform="translate(0 0)"/><path class="cls-40" d="M134,74.06a1.8,1.8,0,0,1,1.06-2c1.31-.7,2.57-1.28,2.85,1l0,0A5.32,5.32,0,0,0,134,74.06Z" transform="translate(0 0)"/><path class="cls-6" d="M219.8,57c6-2.3,7.85-1.16,7,4.32-1.28,8.32-2.64,16.62-4,24.93a6.75,6.75,0,0,1-1.9,4,7.4,7.4,0,0,1-5.81.73c-1.72-1-3.48-.07-5.22-.06l-1,.12c-6.09,0-8.07-1.54-9.64-7.62a3,3,0,0,1,.53-1.45l.36-9.91c-.17-2,.09-3.87,2.19-4.89,3.9-4.68,8.5-6.91,14.51-4.06,1.77.61,1.93-.69,2-1.83C219,59.8,219,58.32,219.8,57Z" transform="translate(0 0)"/><path class="cls-6" d="M182.94,90.08l-2.05.11c-2.65.79-5.45-.22-8.09.68a12.23,12.23,0,0,1-6-.68c-5-2.21-5.81-4.47-3.67-10.18,2.15-5.3,6.46-7.47,11.82-8.12.57-.63,1.81-.92,1.39-2-.29-.79-1.25-.73-2-.82-1.46,0-2.92,0-4.37,0-4.44-.2-4.67-.73-2.2-5,6.3-4.83,15.29-3.31,18.14,3.06a14.52,14.52,0,0,1,1.27,4.6c.12,2.09-.83,4-.9,6.07q-.18,3.67-.7,7.3c-.43,1.65-.3,3.45-1.31,5A1.07,1.07,0,0,1,182.94,90.08Z" transform="translate(0 0)"/><path class="cls-6" d="M146,90c-1.85-2.55-4-4.91-5.1-8-.31-2.68-.61-5.35-.92-8-1-5,.58-9.25,3.9-13,3.76-3.67,7.9-6.24,13.5-6.07,8.17.26,8.92,1.32,5.58,9-1.3.14-2.45-.48-3.69-.64a14.84,14.84,0,0,0-4.93.22,2.82,2.82,0,0,0-2.61,1.4c-3.35,3.22-5.12,10.47-3.52,14.46,1.53,3.82,5.13,4.87,11.83,3.46,1.62.09,1.51.9.83,2-1.82,5.64-4.44,7.08-10.5,5.84C148.89,90.35,147.42,90.19,146,90Z" transform="translate(0 0)"/><path class="cls-9" d="M186,72.14c0-1.7,0-3.4-.07-5.11,1.05.44,1,2.08,2.74,2.2.68-2.29-.3-5,1.28-7.17a7.21,7.21,0,0,1,6,0c1.83,3.89,4.22-2.36,6.15.72-.28,1.16-.65,2.68-1,4.2.56,3.32-1.8,4.11-4.22,4.84-2.86,4.8-2.69,10.37-3.89,15.59-.22,1-.08,2-1,2.63-2.11,1.16-4.34.3-6.51.39-1.32-1.72-.24-3.49-.12-5.24-.19-2,.75-3.89.65-5.88C185.06,76.94,188.23,74.56,186,72.14Z" transform="translate(0 0)"/><path class="cls-37" d="M143.84,61c-1.75,4.18-3.48,8.37-3.9,13l-2-1c-.65-1.18-1.79-1-2.85-1,3.7-2.28,4.84-6.05,5.79-9.93Z" transform="translate(0 0)"/><path class="cls-41" d="M167.77,64c.62,1.46-3.12,5.28,2.25,4.17,1.53.84,3.26,0,4.82.58a1,1,0,0,1,0,1.26c-1.94,0-3.9,0-5.83.19s-4.2,2.36-5-1.19C163.32,66,164.85,64.4,167.77,64Z" transform="translate(0 0)"/><path class="cls-42" d="M199.82,83.06c1.37,4.54,4.26,7.35,9.07,8-4.23,2-7.37.39-10-3C198.6,86.25,197.17,84.28,199.82,83.06Z" transform="translate(0 0)"/><path class="cls-43" d="M160.83,84.81a2,2,0,0,0-.83-2L163.14,80c-.45,4-.08,7.7,3.67,10.18C161.84,91.7,161,88.66,160.83,84.81Z" transform="translate(0 0)"/><path class="cls-44" d="M159.91,62l3,1.92c-.69,2.24-2.52,1.73-4,1.5-2.39-.35-4.73-1.1-7.19-.51-.39-1.89,1.07-1.71,2.16-1.93C155.73,61.78,158,63.29,159.91,62Z" transform="translate(0 0)"/><path class="cls-45" d="M172.8,90.87c2.51-2.48,5.29-1.71,8.09-.68C178.54,94.59,175.75,93.64,172.8,90.87Z" transform="translate(0 0)"/><path class="cls-46" d="M229.62,88.86c-.18,1.16-.79,2-1.93,1.76s-2.67-.67-2.6-2.36a2.07,2.07,0,0,1,2.24-2.11C228.94,86.22,229.25,87.64,229.62,88.86Z" transform="translate(0 0)"/><path class="cls-47" d="M174.89,70c0-.32,0-.63,0-1-.32-.25-.42-.47-.29-.67s.25-.29.37-.29c1.9-.13,4.08-.09,3.93,2.4s-2.5,1.17-3.92,1.42C174.94,71.25,174.92,70.62,174.89,70Z" transform="translate(0 0)"/><path class="cls-45" d="M185.11,89.93l6.8.15c-3,3.55-6,2-9,0a2.75,2.75,0,0,1,.85-.14A.76.76,0,0,1,185.11,89.93Z" transform="translate(0 0)"/><path class="cls-48" d="M219.8,57c0,2.13.42,4.28-.6,6.34-1.1,2.23-1.65.42-2.36-.27C218.9,61.59,216.82,58.07,219.8,57Z" transform="translate(0 0)"/><path class="cls-49" d="M213.93,89.74l7,.48a1.86,1.86,0,0,1-1,1.76,10,10,0,0,1-6,.18A1.85,1.85,0,0,1,213.93,89.74Z" transform="translate(0 0)"/><path class="cls-50" d="M154.79,71c.75,1.79-.45,3.4.81,4.57.51.46,1.93.23,1.36,1.47-.19.41-1.09.69-1.66.67-1,0-1.33-.88-1.31-1.74C154,74.58,153.56,73.08,154.79,71Z" transform="translate(0 0)"/><path class="cls-51" d="M196.83,71.86c.83-2.12,4.3-1.93,4.22-4.84l1.27.13q-1.08,2.44-2.18,4.89C199,72.19,197.84,73.64,196.83,71.86Z" transform="translate(0 0)"/><path class="cls-52" d="M197.9,85c-1.18-3.19-1.18-3.19-.62-8.08A7.67,7.67,0,0,1,198.9,82C198.42,82.92,198.67,84.11,197.9,85Z" transform="translate(0 0)"/><path class="cls-53" d="M221.91,101c0-1.1.17-2.28-1-3a8,8,0,0,1,3.82-3.61A19.74,19.74,0,0,1,221.91,101Z" transform="translate(0 0)"/><path class="cls-54" d="M213.93,89.74v2.17c.34.24.45.48.33.71s-.23.35-.35.35c-.81-1.7-3.07-.62-4-2.06A4.2,4.2,0,0,1,213.93,89.74Z" transform="translate(0 0)"/><path class="cls-55" d="M197.9,85c.11-1.08-.11-2.26,1-3a8.61,8.61,0,0,0,.88,0c0,.37,0,.74,0,1.11-1.56,1.42-.63,3.29-.9,5C197.75,87.28,198,86.08,197.9,85Z" transform="translate(0 0)"/><path class="cls-53" d="M195.91,62.1l-6,0A4.3,4.3,0,0,1,195.91,62.1Z" transform="translate(0 0)"/><path class="cls-3" d="M129.27,56.53a6.59,6.59,0,0,1,4.92-.06C132.63,57.32,131.35,57.07,129.27,56.53Z" transform="translate(0 0)"/><path class="cls-56" d="M213.91,93c0-.35,0-.71,0-1.06l5.95.07C218.14,93.8,215.9,92.64,213.91,93Z" transform="translate(0 0)"/><path class="cls-57" d="M22,88c-.64-3.32,1.31-7-1.25-10.06.63-3-.65-6.27,2.25-10.13V88Z" transform="translate(0 0)"/><path class="cls-58" d="M36.09,73.13l-.93-2c.25-.9.33-1.91,1.48-2.42A4,4,0,0,1,36.09,73.13Z" transform="translate(0 0)"/><path class="cls-59" d="M67.11,77c1.53-.13,3,3.19,4.58.11.9,1.47,2.55,1.88,3.91,2.66,1,.57,2.27,1,2.15,2.23-.14,1.44-1.26,2.15-2.77,2a1.13,1.13,0,0,0-2,0l-4-.18a.49.49,0,0,1-.38-.72c-.53-.57-1.16.55-1.7-.11a3,3,0,0,1,0-3.12Z" transform="translate(0 0)"/><path class="cls-60" d="M56.91,84c-4.53,1.48-5.22.93-4.92-3.95a4.82,4.82,0,0,1,2.45-.91C58.16,79.26,58,81.4,56.91,84Z" transform="translate(0 0)"/><path class="cls-61" d="M54.06,79.85,52,80c.49-1.45,1.7-1.85,3-2.19s2.92-1.44,4.11.07c1.36,1.72-.09,3-1.13,4.25C57.33,80.28,56.6,78.51,54.06,79.85Z" transform="translate(0 0)"/><path class="cls-62" d="M69,83c0,.27,0,.54,0,.82-2.54.41-1.75,2.54-2.11,4.08-.34-.69-.68-1.38-1-2.07.32-2-.43-4.18,1.07-6C67.06,81,66.75,82.24,68,83A.58.58,0,0,1,69,83Z" transform="translate(0 0)"/><path class="cls-63" d="M50,92l-4,0V88.87l4,2.07C50,91.29,50,91.64,50,92Z" transform="translate(0 0)"/><path class="cls-64" d="M54.06,79.85C56.9,78,58,79.21,58,82.14A1.79,1.79,0,0,1,56.91,84C57.26,81.69,57.16,79.74,54.06,79.85Z" transform="translate(0 0)"/><path class="cls-60" d="M99,84l-2,.2c-1.66-.19-2.17-1.21-2.12-2.76C95,76.07,95.33,70.82,101,68l1,1-1.81,3.85c-1.27,1.54-1.28,3.39-1.31,5.24a6.4,6.4,0,0,0,0,4.77Z" transform="translate(0 0)"/><path class="cls-65" d="M122.8,77.89C121,81.61,117.62,81,114.41,81c-2.12,0-4.24.06-6.36.09-.36-2.4.82-3.13,3.07-3.09C115,78.06,118.91,77.94,122.8,77.89Z" transform="translate(0 0)"/><path class="cls-66" d="M109.87,69.74c1.62-3.59,3.85-2.67,6-.67,2,1.84.89,3-1.16,3.76C113.22,71.6,110.86,71.74,109.87,69.74Z" transform="translate(0 0)"/><path class="cls-67" d="M109.87,69.74a4.7,4.7,0,0,1,4.83,3.09C113,71.93,108.22,75.86,109.87,69.74Z" transform="translate(0 0)"/><path class="cls-68" d="M78.88,72.21c.17-.79.24-1.83,1.18-1.93,2-.21,4-.19,5.92-.26,1.29,1.45,2.1,3.12,1,4.9-.74,1.15-2,.71-3.12.16Z" transform="translate(0 0)"/><path class="cls-69" d="M83.82,75.08c5,.13,1.43-3.38,2.16-5.07A2.2,2.2,0,0,0,88,69l.85.08L86.79,84A.47.47,0,0,1,86,84C86.09,80.82,86,77.71,83.82,75.08Z" transform="translate(0 0)"/><path class="cls-70" d="M86,84l.82,0c.16,1.33.31,2.66.47,4l-2.38-1C85,85.83,84.94,84.71,86,84Z" transform="translate(0 0)"/><path class="cls-71" d="M73,84c.09-.89-.25-2.34.8-2.43,1.73-.14,1,1.55,1.21,2.48Z" transform="translate(0 0)"/><path class="cls-70" d="M76,91c-1.39,1.7-3.3.87-5,1l1.17-1.15Z" transform="translate(0 0)"/><path class="cls-72" d="M126.88,70.91l-1.82-.71c1.55-1.81-.6-5.18,2.66-6.27Z" transform="translate(0 0)"/><path class="cls-73" d="M98.82,82.87a3.39,3.39,0,0,1,0-4.77C98.83,79.69,98.83,81.28,98.82,82.87Z" transform="translate(0 0)"/><path class="cls-74" d="M215.06,81c-3.79,4.12-4.75,4-7.93-1.11.76-1.61-.23-3.47.74-5a6.2,6.2,0,0,1,1-3.88c4.51-1.07,6.64.36,6.95,4.69A16.43,16.43,0,0,1,215.06,81Z" transform="translate(0 0)"/><path class="cls-44" d="M215.06,81c-.06-1.45-.09-2.9-.17-4.35-.21-3.76-1.72-6.19-6-5.68l.88-1c2.41-1,4.65-1.18,6.46,1.15.09,2.66.58,5.33-.32,8A1.94,1.94,0,0,1,215.06,81Z" transform="translate(0 0)"/><path class="cls-75" d="M215.9,71c-1.89-1.22-4-1-6.12-1,2.8-2.73,5.1-2.06,7.05,1C216.52,71.5,216.21,71.47,215.9,71Z" transform="translate(0 0)"/><path class="cls-76" d="M215.9,71h.93c-.27,2.7,1,5.57-.91,8.08C215.91,76.4,215.91,73.7,215.9,71Z" transform="translate(0 0)"/><path class="cls-77" d="M207.87,74.85c-.17,1.69.65,3.53-.74,5C207,78.15,206.34,76.34,207.87,74.85Z" transform="translate(0 0)"/><path class="cls-78" d="M171,80c1.59-2.8,4.71-3.06,6.27-1.44,1.94,2-.22,4.16-2.25,5.55C172.26,84.12,172.49,81.22,171,80Z" transform="translate(0 0)"/><path class="cls-79" d="M171,80c3.48-.73,2.31,3.1,4,4.11C171,85.39,169.5,84.14,171,80Z" transform="translate(0 0)"/><path class="cls-80" d="M186,72.14c4.17,1.82.11,4.59.79,6.81-.87.32-1.29-.15-1.55-.9C184.17,75.91,186.51,74.21,186,72.14Z" transform="translate(0 0)"/><path class="cls-81" d="M185.22,78.05l1.55.9q-.48,3-1,6a.48.48,0,0,1-.84,0C183.84,82.63,185.52,80.38,185.22,78.05Z" transform="translate(0 0)"/><path class="cls-14" d="M185,85l.84,0a10.28,10.28,0,0,1-.68,5h-1.32C184.19,88.29,183.39,86.36,185,85Z" transform="translate(0 0)"/><path class="cls-82" d="M175,68.07c0,.32,0,.64-.08,1-1.62-.27-3.45.6-4.85-.89Z" transform="translate(0 0)"/><path class="cls-83" d="M159.91,62c-1.78,1.8-4,.65-6.06,1C155.64,61.24,157.88,62.32,159.91,62Z" transform="translate(0 0)"/><path class="cls-84" d="M69,83l-1,0c.13-1,.38-2,1.71-1.76.32.05.56.6.84.93Z" transform="translate(0 0)"/><path class="cls-85" d="M112,79.63a9.82,9.82,0,0,1,6.69,0Z" transform="translate(0 0)"/></svg>