<svg id="Capa_1" data-name="Capa 1" xmlns="http://www.w3.org/2000/svg" viewBox="0 0 50.89 50.93"><defs><style>.cls-1{fill:#919191;}</style></defs><path class="cls-1" d="M393.3,270.91V310.8a7.56,7.56,0,0,1-5.5,5.5H347.91c-4.19-1.71-5.5-3.65-5.5-8.18V273.26c0-5,2.84-7.85,7.85-7.85,11.62,0,23.24.06,34.86,0C388.71,265.34,391.9,266.63,393.3,270.91Zm-25.39,43.26c6,0,11.94,0,17.91,0,3.54,0,5.33-1.77,5.34-5.26q0-18,0-36.06c0-3.46-1.88-5.24-5.38-5.24H350.21c-3.83,0-5.61,1.8-5.61,5.65v35.21c0,4,1.69,5.7,5.64,5.71C356.13,314.19,362,314.17,367.91,314.17Z" transform="translate(-342.41 -265.37)"/><path class="cls-1" d="M382.08,279.62c.42.22.74-.31,1.34,0A18.43,18.43,0,0,1,381,284a7.08,7.08,0,0,0-1.53,3.93c-.5,5-2.91,9-6.15,12.66-2.95,3.31-6.8,4.07-11,3.74a24.74,24.74,0,0,1-7.28-1.74,8.37,8.37,0,0,1-3.18-2.27c-.19-.2-.47-.4-.38-.7s.53-.3.83-.3a27.33,27.33,0,0,0,5.1-.46c.29-.05.72,0,.77-.39s-.34-.41-.57-.55a7,7,0,0,1-3.19-4.16c-.12-.47-.41-.95.1-1.43.35-.32-.09-.56-.25-.79a5.2,5.2,0,0,1-.84-4.54,4.19,4.19,0,0,0-.2-2.45,7.46,7.46,0,0,1,.46-6c.54-1,.72-1,1.36-.09a18.53,18.53,0,0,0,4.44,4.78,14.35,14.35,0,0,0,4.43,2c1.07.31,1.46-.05,1.73-1.09a7.5,7.5,0,0,1,6.45-5.73,7,7,0,0,1,4.23,1,1.93,1.93,0,0,0,2,0c1.13-.58,2.3-1.09,3.45-1.63.21-.1.46-.29.67-.13s0,.51,0,.76S382,279.15,382.08,279.62Zm-24.58,21.5a16.51,16.51,0,0,0,4.16,1c3.57.36,7.09.25,9.77-2.61A21.15,21.15,0,0,0,377.35,288c.27-1.79-.06-3.67.7-5.4.09-.2,0-.5-.21-.43-1.34.36-2.09-.8-3.13-1.19a4.58,4.58,0,0,0-5.2.91c-1.37,1.33-2.41,2.91-1.61,5,.29.76,0,1-.75,1a15.93,15.93,0,0,1-10.77-4.48c-.33-.32-.55-.79-1.1-.87-.33.48-.09.93,0,1.36a12.1,12.1,0,0,0,2.39,4.38c.22.26.59.55.46.91s-.68.29-1.05.35-1-.28-1.22.14.39.89.73,1.25a6,6,0,0,0,2,1.34c1.16.5,2.36.95,3.53,1.45.33.14.79.14.93.67a2.52,2.52,0,0,1-.45.14l-4.18,0c-.27,0-.62-.07-.77.21s.2.56.42.76a8.51,8.51,0,0,0,4.17,1.92c1.12.24,1.13.38.38,1.24C361.35,300.15,359.57,300.59,357.5,301.12Z" transform="translate(-342.41 -265.37)"/></svg>