<svg id="Capa_2" data-name="Capa 2" xmlns="http://www.w3.org/2000/svg" viewBox="0 0 238 145"><path d="M0,144.9V.1Q117,.1,233.9,0c3.43,0,4.11.67,4.1,4.09q-.23,68.41,0,136.82c0,3.42-.67,4.1-4.1,4.09Q117,144.82,0,144.9ZM61.51,70C60.28,63.32,58.89,56.71,57.88,50c-.77-5.1-3.58-7-8.51-6.85-4.64.17-9.28,0-13.92.07-2.77.06-5.66-.54-9.2.68,6,2.78,12,3.56,16,8.07,3.44,13.16,6.94,26.3,10.3,39.48,2.84,11.13,2.77,11,14,11,3.43,0,5.32-1,6.66-4.38C79,83.27,85.14,68.55,91.14,53.78c4.35-10.71,4.35-10.52-7-10.69-3.9-.06-5.62,1.38-6.74,4.89-2,6.16-4.31,12.21-6.57,18.27-1.87,5-3.84,10-6,15.65C62.34,77.56,63.19,73.43,61.51,70Zm144.13,32.5c9.2-.21,8.59.82,6.92-7.58-2.81-14.17-5.49-28.38-8.7-42.46-2.4-10.5.15-9.14-11.3-9.21-8-.05-8.73.6-11.82,8-5.55,13.36-11.23,26.67-16.66,40.08-1.38,3.41-5.22,7.87-3,10.23,2.46,2.6,7.88.74,12,.8a2.85,2.85,0,0,0,3.16-2.56c.91-6,4.69-7.27,10-6.6a48.43,48.43,0,0,0,8,0c2.57-.11,4.27.8,4.46,3.49C199.12,101.7,201.82,103.35,205.64,102.46Zm-71.75.48a33.67,33.67,0,0,0,12.79-1.7c8.15-2.92,13.2-8.69,13.91-17.2.64-7.71-4.44-12.48-10.7-16.06-2.74-1.56-5.69-2.86-8.16-4.76-3.76-2.9-3.2-5.91,1.12-7.9,4.61-2.12,9.17-1.21,13.57.5,3.55,1.37,4.84.07,5.13-3.3.13-1.48.39-3,.66-4.43.47-2.52-.29-4.09-3-4.77-8.87-2.24-17.55-2-25.75,2.27-12.91,6.77-13.72,21-1.71,29.21,2.88,2,6.07,3.45,9.05,5.25,2.07,1.25,3.74,2.86,3.38,5.61-.4,3-2.69,4-5.17,4.7-4.16,1.17-8.26.55-12.31-.56-7.8-2.14-7.57-2.12-9.15,5.53-.87,4.16.56,5.81,4.44,6.47A52.29,52.29,0,0,0,133.89,102.94Zm-34-.5c8.42,0,7.35.21,8.43-6.78,2.15-13.89,4.51-27.76,6.84-41.63,2.12-12.6,3.14-10.6-9-10.88-3.25-.07-4.72,1-5.23,4.37-2.38,15.71-5,31.38-7.52,47.06C92.09,102.39,92.1,102.43,99.88,102.44Z" transform="translate(0 0)" fill="#909292"/><path d="M205.64,102.46c-3.82.89-6.52-.76-6.88-5.74-.19-2.69-1.89-3.6-4.46-3.49a48.43,48.43,0,0,1-8,0c-5.34-.67-9.12.64-10,6.6a2.85,2.85,0,0,1-3.16,2.56c-4.14-.06-9.56,1.8-12-.8-2.24-2.36,1.6-6.82,3-10.23,5.43-13.41,11.11-26.72,16.66-40.08,3.09-7.43,3.86-8.08,11.82-8,11.45.07,8.9-1.29,11.3,9.21,3.21,14.08,5.89,28.29,8.7,42.46C214.23,103.28,214.84,102.25,205.64,102.46ZM191.33,60.39c-3.27,5.85-4.57,11-6.34,15.92-.48,1.35-2.2,3.48,0,4.33a13.93,13.93,0,0,0,8.82,0c1.81-.53,1.29-2.53,1-3.92C193.83,71.74,192.7,66.74,191.33,60.39Z" transform="translate(0 0)" fill="#e3e4e5"/><path d="M133.89,102.94A52.29,52.29,0,0,1,122,101.8c-3.88-.66-5.31-2.31-4.44-6.47,1.58-7.65,1.35-7.67,9.15-5.53,4,1.11,8.15,1.73,12.31.56,2.48-.7,4.77-1.69,5.17-4.7.36-2.75-1.31-4.36-3.38-5.61-3-1.8-6.17-3.3-9.05-5.25-12-8.16-11.2-22.44,1.71-29.21,8.2-4.31,16.88-4.51,25.75-2.27,2.7.68,3.46,2.25,3,4.77-.27,1.47-.53,2.95-.66,4.43-.29,3.37-1.58,4.67-5.13,3.3-4.4-1.71-9-2.62-13.57-.5-4.32,2-4.88,5-1.12,7.9,2.47,1.9,5.42,3.2,8.16,4.76,6.26,3.58,11.34,8.35,10.7,16.06-.71,8.51-5.76,14.28-13.91,17.2A33.67,33.67,0,0,1,133.89,102.94Z" transform="translate(0 0)" fill="#e3e4e5"/><path d="M61.51,70c1.68,3.47.83,7.6,3.31,11.94,2.19-5.67,4.16-10.64,6-15.65,2.26-6.06,4.59-12.11,6.57-18.27,1.12-3.51,2.84-4.95,6.74-4.89,11.33.17,11.33,0,7,10.69C85.14,68.55,79,83.27,73.25,98.12c-1.34,3.43-3.23,4.38-6.66,4.38-11.25,0-11.18.11-14-11C49.21,78.3,45.71,65.16,42.27,52c5.41,1.84,9.06,5.88,12.73,10C57.31,64.54,58.12,68.3,61.51,70Z" transform="translate(0 0)" fill="#e3e4e5"/><path d="M99.88,102.44c-7.78,0-7.79,0-6.52-7.86,2.55-15.68,5.14-31.35,7.52-47.06.51-3.35,2-4.44,5.23-4.37,12.18.28,11.16-1.72,9,10.88-2.33,13.87-4.69,27.74-6.84,41.63C107.23,102.65,108.3,102.42,99.88,102.44Z" transform="translate(0 0)" fill="#e3e4e5"/><path d="M61.51,70c-3.39-1.66-4.2-5.42-6.51-8-3.67-4.09-7.32-8.13-12.73-10-4.05-4.51-10-5.29-16-8.07,3.54-1.22,6.43-.62,9.2-.68,4.64-.11,9.28.1,13.92-.07C54.3,43,57.11,44.93,57.88,50,58.89,56.71,60.28,63.32,61.51,70Z" transform="translate(0 0)" fill="#ebebe8"/><path d="M191.33,60.39c1.37,6.35,2.5,11.35,3.49,16.38.27,1.39.79,3.39-1,3.92a13.93,13.93,0,0,1-8.82,0c-2.19-.85-.47-3,0-4.33C186.76,71.38,188.06,66.24,191.33,60.39Z" transform="translate(0 0)" fill="#909292"/></svg>