<svg id="Capa_3" data-name="Capa 3" xmlns="http://www.w3.org/2000/svg" viewBox="0 0 238 145"><defs><style>.cls-1{fill:#909291;}.cls-2{fill:#faf9fa;}.cls-3{fill:#fcfcfc;}</style></defs><path class="cls-1" d="M119,.08C157.47.08,196,.13,234.42,0c3,0,3.59.6,3.58,3.58q-.18,68.93,0,137.84c0,3-.6,3.58-3.58,3.58Q119,144.85,3.58,145c-3,0-3.59-.6-3.58-3.58Q.18,72.5,0,3.58C0,.6.6,0,3.58,0,42.05.13,80.53.08,119,.08Zm30,75c0,1.83,0,3.66,0,5.49,0,6.35,1.79,9.28,6,9.92,3.78.57,11.67-3.89,12.8-7.35.48-1.43.6-3.08-.72-4.16-1.69-1.39-2.18.75-3.15,1.35s-2,1.76-3.15,2.41c-2,1.12-4.23,2.13-5.41-.79-1-2.32,0-4.13,2.58-5a16.62,16.62,0,0,0,7.15-4.36c4.26-4.58,5.44-10.67,2.44-13.36-3.3-2.94-9-.77-13,4.58-2.57,3.51-3.44,7.79-5.71,11.4a66.64,66.64,0,0,0-.36-8.38c-1-5.81-4-7.28-9.13-4.63-1,.52-1.66,1.36-3.06.61-4.05-2.15-4.78.65-5.35,3.74-1,5.38-2,10.75-3.19,16.1-.3,1.35-.74,3.44-2.64,3s-1.1-2.51-.86-3.84c.75-4.08,1.71-8.11,2.53-12.17,1.16-5.7.52-6.27-5.2-5a6.51,6.51,0,0,1-2.36-.4,6.63,6.63,0,0,0-6.36,2.06C106.76,72.57,104,80.25,105.12,89c.71,5.81,5.26,7.73,10.08,4.34,3.51-2.46,6.73-.1,9.92.19,1.65.15.73,3.21-.9,4.27a8,8,0,0,1-3.83.9,125.88,125.88,0,0,0-16.74,2.39c-6.82,1.24-6.72,1.31-4.69-5.63,2.61-8.88,5-17.81,7.56-26.71.34-1.18.6-2.29-.59-3.13s-2.24-.21-3.25.37a9,9,0,0,0-4,5.46C97,76.6,95.5,81.88,92.53,86.56c-1,1.64-2.18,3.26-4.33,2.23s-.85-2.93-.57-4.43c.23-1.28.92-2.48,1.25-3.75a50,50,0,0,0,1.61-7.27A2.85,2.85,0,0,0,88.15,70c-1.19-.2-2.56-.25-2.89,1.19-1.58,6.77-4.68,13.2-4.91,20.25-.16,5,4.28,7.42,8.64,5,.93-.51,1.16-2.12,3-1.66-1.32,5.06-1.81,10.06-8.24,12.17-5.25,1.71-9.09,6.08-12.49,10.43a20.69,20.69,0,0,0-4.17,10c-.46,3.36.37,6.25,3.45,8.2,2.89,1.82,5.66,1.41,8.48-.15a22.77,22.77,0,0,0,6.32-5.57c3.71-4.4,6-9.6,7.74-15,1.12-3.45,2.91-5.06,6.5-5.61,6.72-1,13.37-2.53,20-3.85,1.65-.33,3.41-.88,4.22,1.29,1.41,3.74,3.29,2.25,4.37.09s2.7-2.87,5-3.13q11.13-1.2,22.22-2.9c2.53-.38,6.76.19,6.14-3.9-.55-3.61-4.29-2.71-7.07-2.44l-1,.11c-6.6.75-13.19,1.51-19.8,2.2-1.07.11-2.63.46-2.74-1.24a9.34,9.34,0,0,1,.59-4.34c.52-1.15,1.77-.27,2.63.07,5.41,2.1,8.26-1.31,10.36-5.24C146.44,82.61,147.53,78.75,149,75.06ZM126.08,7.86c-9.37,0-17.11,4-20.86,11.18-4,7.58-3.94,15.36.69,22.62,1.93,3,2.77,5.83,2.17,9.28-.21,1.21-.66,3.07.62,3.61a4.16,4.16,0,0,0,3.65-.88c2.48-2.41,5.15-2.27,8.23-1.74,9.21,1.57,16.8-1.89,22.69-8.69,6.7-7.72,6.3-16.63,1.62-25C140.9,11.21,134.32,7.26,126.08,7.86Z" transform="translate(0)"/><path class="cls-2" d="M149,75.07c-1.43,3.68-2.52,7.54-4.37,11-2.1,3.93-5,7.34-10.36,5.24-.86-.34-2.11-1.22-2.63-.07a9.34,9.34,0,0,0-.59,4.34c.11,1.7,1.67,1.35,2.74,1.24,6.61-.69,13.2-1.45,19.8-2.2l1-.11c2.78-.27,6.52-1.17,7.07,2.44.62,4.09-3.61,3.52-6.14,3.9q-11.07,1.71-22.22,2.9c-2.35.26-3.89.83-5,3.13s-3,3.65-4.37-.09c-.81-2.17-2.57-1.62-4.22-1.29-6.67,1.32-13.32,2.83-20,3.85-3.59.55-5.38,2.16-6.5,5.61-1.75,5.35-4,10.55-7.74,15A22.77,22.77,0,0,1,79,135.48c-2.82,1.56-5.59,2-8.48.15-3.08-1.95-3.91-4.84-3.45-8.2a20.69,20.69,0,0,1,4.17-10c3.4-4.35,7.24-8.72,12.49-10.43,6.43-2.11,6.92-7.11,8.24-12.17-1.84-.46-2.07,1.15-3,1.66-4.36,2.38-8.8-.07-8.64-5,.23-7,3.33-13.48,4.91-20.25.33-1.44,1.7-1.39,2.89-1.19a2.85,2.85,0,0,1,2.34,3.34,50,50,0,0,1-1.61,7.27c-.33,1.27-1,2.47-1.25,3.75-.28,1.5-1.56,3.41.57,4.43s3.29-.59,4.33-2.23c3-4.68,4.47-10,6.17-15.14a9,9,0,0,1,4-5.46c1-.58,2.09-1.18,3.25-.37s.93,2,.59,3.13c-2.53,8.9-5,17.83-7.56,26.71-2,6.94-2.13,6.87,4.69,5.63a125.88,125.88,0,0,1,16.74-2.39,8,8,0,0,0,3.83-.9c1.63-1.06,2.55-4.12.9-4.27-3.19-.29-6.41-2.65-9.92-.19-4.82,3.39-9.37,1.47-10.08-4.34-1.08-8.72,1.64-16.4,7.75-22.79a6.63,6.63,0,0,1,6.36-2.06,6.51,6.51,0,0,0,2.36.4c5.72-1.22,6.36-.65,5.2,5-.82,4.06-1.78,8.09-2.53,12.17-.24,1.33-1,3.35.86,3.84s2.34-1.6,2.64-3c1.16-5.35,2.2-10.72,3.19-16.1.57-3.09,1.3-5.89,5.35-3.74,1.4.75,2-.09,3.06-.61,5.15-2.65,8.18-1.18,9.13,4.63a66.64,66.64,0,0,1,.36,8.38Zm-6-2.51c-.06-2.1.15-4-1.88-4.56s-3,1.12-3.76,2.56a44.32,44.32,0,0,0-3.47,11.79c-.23,1.21-1.08,2.7.71,3.42,1.57.63,2.89,0,3.92-1.29C141.44,80.89,142.08,76.46,143,72.56Zm-22.58.16a2,2,0,0,0-.52-2.41c-1.07-.75-2.15-.31-3.21.35-3.45,2.14-6.62,10.1-5.51,14.16.35,1.26.83,2.67,2.37,2.85,1.34.16,2.11-1,2.6-2A54.92,54.92,0,0,0,120.38,72.72ZM86.55,113.27c-6.69,3-10.34,6.93-12.57,12.29-.54,1.3-1.6,2.88.21,4,1.6,1,2.82-.16,3.89-1.26C81.85,124.39,84,119.58,86.55,113.27Z" transform="translate(0)"/><path class="cls-3" d="M126.08,7.86c8.24-.6,14.82,3.35,18.81,10.43,4.68,8.32,5.08,17.23-1.62,25-5.89,6.8-13.48,10.26-22.69,8.69-3.08-.53-5.75-.67-8.23,1.74a4.16,4.16,0,0,1-3.65.88c-1.28-.54-.83-2.4-.62-3.61.6-3.45-.24-6.26-2.17-9.28-4.63-7.26-4.68-15-.69-22.62C109,11.89,116.71,7.85,126.08,7.86ZM114.83,33.27c-1.51,4,.54,5.89,2.8,6.4,2.69.62,6.15,1.67,8.16-1.53,1.57-2.51.84-4.62-1.43-6.84-1.68-1.65-4-.83-5.58-2.73-1-1.26-2.31-2.18-1.2-3.62s2.91-1.5,4.51-.54c1.33.8,1.4,3.05,3.64,3.15.55-5.23-2.69-5.63-6.54-5.5-2.35.07-4.41.6-5,3.09-.54,2.12.36,3.79,2.36,5,1.39.81,2.55,1.82,4.28,2.21a3.33,3.33,0,0,1,2.77,3.45c-.1.85-.45,2.08-1.7,2.18-1.61.13-3.35.63-4.52-1.13C116.73,35.88,116.05,35,114.83,33.27ZM129,38.51c2.9-1.38,10.72-13.11,10.44-15.18a1.36,1.36,0,0,0-.82-1c-.6-.06-1.69,0-1.79.32C135,28.14,130.53,32.39,129,38.51Z" transform="translate(0)"/><path class="cls-2" d="M148.85,75.19c2.27-3.61,3.14-7.89,5.71-11.4,3.94-5.35,9.67-7.52,13-4.58,3,2.69,1.82,8.78-2.44,13.36a16.62,16.62,0,0,1-7.15,4.36c-2.62.87-3.53,2.68-2.58,5,1.18,2.92,3.46,1.91,5.41.79,1.14-.65,2-1.72,3.15-2.41s1.46-2.74,3.15-1.35c1.32,1.08,1.2,2.73.72,4.16-1.13,3.46-9,7.92-12.8,7.35-4.25-.64-6-3.57-6-9.92,0-1.83,0-3.66,0-5.49ZM163,66.38c-.14-1-.36-2.31-1.25-1.92-2.06.9-2.92,3-3.66,5-.33.92.17,1.78,1.22,1.46C161.63,70.24,162.61,68.39,163,66.38Z" transform="translate(0)"/><path class="cls-1" d="M143,72.56c-.88,3.9-1.52,8.33-4.48,11.92-1,1.25-2.35,1.92-3.92,1.29-1.79-.72-.94-2.21-.71-3.42a44.32,44.32,0,0,1,3.47-11.79c.73-1.44,1.77-3.09,3.76-2.56S142.9,70.46,143,72.56Z" transform="translate(0)"/><path class="cls-1" d="M120.38,72.72a54.92,54.92,0,0,1-4.27,13c-.49,1-1.26,2.15-2.6,2-1.54-.18-2-1.59-2.37-2.85-1.11-4.06,2.06-12,5.51-14.16,1.06-.66,2.14-1.1,3.21-.35A2,2,0,0,1,120.38,72.72Z" transform="translate(0)"/><path class="cls-1" d="M86.55,113.27c-2.58,6.31-4.7,11.12-8.47,15-1.07,1.1-2.29,2.24-3.89,1.26-1.81-1.1-.75-2.68-.21-4C76.21,120.2,79.86,116.23,86.55,113.27Z" transform="translate(0)"/><path class="cls-1" d="M114.83,33.27c1.22,1.71,1.9,2.61,2.52,3.55,1.17,1.76,2.91,1.26,4.52,1.13,1.25-.1,1.6-1.33,1.7-2.18a3.33,3.33,0,0,0-2.77-3.45c-1.73-.39-2.89-1.4-4.28-2.21-2-1.17-2.9-2.84-2.36-5,.62-2.49,2.68-3,5-3.09,3.85-.13,7.09.27,6.54,5.5-2.24-.1-2.31-2.35-3.64-3.15-1.6-1-3.4-.89-4.51.54s.18,2.36,1.2,3.62c1.54,1.9,3.9,1.08,5.58,2.73,2.27,2.22,3,4.33,1.43,6.84-2,3.2-5.47,2.15-8.16,1.53C115.37,39.16,113.32,37.29,114.83,33.27Z" transform="translate(0)"/><path class="cls-1" d="M129,38.51c1.56-6.12,6-10.37,7.83-15.82.1-.29,1.19-.38,1.79-.32a1.36,1.36,0,0,1,.82,1C139.69,25.4,131.87,37.13,129,38.51Z" transform="translate(0)"/><path class="cls-1" d="M163,66.38c-.41,2-1.39,3.86-3.69,4.54-1.05.32-1.55-.54-1.22-1.46.74-2,1.6-4.1,3.66-5C162.66,64.07,162.88,65.34,163,66.38Z" transform="translate(0)"/></svg>